<svg width="503" height="584" viewBox="0 0 503 584" fill="none" xmlns="http://www.w3.org/2000/svg">
<ellipse cx="364.367" cy="108.874" rx="138.633" ry="95.0837" fill="#D8F932"/>
<path fill-rule="evenodd" clip-rule="evenodd" d="M464.531 115.77C464.531 126.94 461.471 137.586 455.932 147.282C457.735 150.226 458.724 153.429 458.724 156.779C458.724 170.47 442.2 181.701 421.167 182.818C412.651 189.99 400.117 194.522 386.141 194.522C385.894 194.522 385.647 194.521 385.401 194.518C379.219 196.071 372.761 197.235 366.092 197.968V325.898H373.077V417.352H362.239C347.169 488.22 282.952 541.469 206.018 541.469C117.893 541.469 46.4531 471.602 46.4531 385.416C46.4531 299.23 117.893 229.362 206.018 229.362C215.264 229.362 224.326 230.131 233.141 231.607V76.938H255.082C273.929 51.4344 310.763 34.114 353.116 34.114C414.649 34.114 464.531 70.6726 464.531 115.77Z" fill="white"/>
<path fill-rule="evenodd" clip-rule="evenodd" d="M464.531 115.77C464.531 126.94 461.471 137.586 455.932 147.282C457.735 150.226 458.724 153.429 458.724 156.779C458.724 170.47 442.2 181.701 421.167 182.818C412.651 189.99 400.117 194.522 386.141 194.522C385.894 194.522 385.647 194.521 385.401 194.518C379.219 196.071 372.761 197.235 366.092 197.968V325.898H373.077V417.352H362.239C347.169 488.22 282.952 541.469 206.018 541.469C117.893 541.469 46.4531 471.602 46.4531 385.416C46.4531 299.23 117.893 229.362 206.018 229.362C215.264 229.362 224.326 230.131 233.141 231.607V76.938H255.082C273.929 51.4344 310.763 34.114 353.116 34.114C414.649 34.114 464.531 70.6726 464.531 115.77Z" fill="url(#paint0_linear_394_1095)" fill-opacity="0.2"/>
<path fill-rule="evenodd" clip-rule="evenodd" d="M248.395 230.814V373.176V383.591V389.435L248.395 389.493L248.395 389.552V390.535H248.385C247.797 422.459 220.224 448.167 186.296 448.167C152 448.167 124.198 421.898 124.198 389.493C124.198 357.089 152 330.82 186.296 330.82C193.297 330.82 200.027 331.915 206.306 333.933V230.139C151.812 230.362 103.801 257.024 75.402 297.488C58.2906 321.868 48.299 351.259 48.299 382.897C48.299 393.443 49.4092 403.739 51.5232 413.683C66.3211 483.293 130.306 535.656 206.996 535.656C288.278 535.656 355.287 476.835 364.59 401.002C365.318 395.065 365.693 389.023 365.693 382.897C365.693 381.504 365.673 380.115 365.635 378.731H365.693V296.102H365.818V197.426V196.7V189.122C370.6 189.8 375.727 190.167 381.061 190.167C398.482 190.167 413.697 186.245 421.869 180.411C444.323 168.466 458.957 150.664 460.103 130.649H460.176V127.02H460.163C459.258 90.0415 412.328 60.2439 354.568 60.2439C296.43 60.2439 249.265 90.4322 248.961 127.746H248.395V128.472V132.101V132.827V230.814ZM437.675 182.909H438.128C477.295 164.87 503 134.539 503 100.165C503 44.8452 436.428 0 354.308 0C277.051 0 213.556 39.6904 206.306 90.4526V109.876L206.306 109.877V130.649V180.839C92.3026 181.201 0 271.216 0 382.203C0 493.413 92.6752 583.567 206.996 583.567C313.352 583.567 400.974 505.537 412.666 405.116H412.612L412.612 400.95L412.612 359.289H412.666C412.624 358.925 412.581 358.562 412.536 358.2L412.427 296.102H412.271V197.426H412.95L436.224 183.635L437.675 184.495V182.909Z" fill="url(#paint1_linear_394_1095)"/>
<defs>
<linearGradient id="paint0_linear_394_1095" x1="297.59" y1="252.952" x2="255.492" y2="541.469" gradientUnits="userSpaceOnUse">
<stop stop-color="#E7FF87" stop-opacity="0"/>
<stop offset="1" stop-color="#E7FF87"/>
</linearGradient>
<linearGradient id="paint1_linear_394_1095" x1="251.5" y1="0" x2="251.5" y2="583.567" gradientUnits="userSpaceOnUse">
<stop stop-color="#C9F647"/>
<stop offset="1" stop-color="#FDFF00"/>
</linearGradient>
</defs>
</svg>
