<svg width="42" height="38" viewBox="0 0 42 38" fill="none" xmlns="http://www.w3.org/2000/svg">
<path d="M21 4.87109C11.4545 4.87109 3.30273 10.7284 0 18.9963C3.30273 27.2643 11.4545 33.1216 21 33.1216C30.5455 33.1216 38.6973 27.2643 42 18.9963C38.6973 10.7284 30.5455 4.87109 21 4.87109ZM21 28.4132C15.7309 28.4132 11.4545 24.1944 11.4545 18.9963C11.4545 13.7982 15.7309 9.57951 21 9.57951C26.2691 9.57951 30.5455 13.7982 30.5455 18.9963C30.5455 24.1944 26.2691 28.4132 21 28.4132ZM21 13.3462C17.8309 13.3462 15.2727 15.8699 15.2727 18.9963C15.2727 22.1227 17.8309 24.6464 21 24.6464C24.1691 24.6464 26.7273 22.1227 26.7273 18.9963C26.7273 15.8699 24.1691 13.3462 21 13.3462Z" fill="#A3A3A3"/>
<rect width="5.08331" height="43.2888" transform="matrix(0.825722 -0.564077 0.584231 0.811587 6 2.86719)" fill="#A3A3A3"/>
</svg>
